<mxfile host="app.diagrams.net" modified="2021-12-23T09:07:46.317Z" agent="5.0 (Windows)" etag="RbXd9IigmDe3Hw9LvZO-" version="16.0.3" type="github" pages="2">
  <diagram id="Xf0kCihZ-aB_llhnf_z4" name="第1頁">
    <mxGraphModel dx="1422" dy="780" grid="1" gridSize="10" guides="1" tooltips="1" connect="1" arrows="1" fold="1" page="1" pageScale="1" pageWidth="827" pageHeight="1169" math="0" shadow="0">
      <root>
        <mxCell id="0" />
        <mxCell id="1" parent="0" />
        <mxCell id="-enL-yWNLoUQDlkAJuOZ-1" value="&lt;div&gt;小遊戲平台&lt;/div&gt;&lt;div&gt;首頁&lt;br&gt;&lt;/div&gt;" style="rounded=0;whiteSpace=wrap;html=1;" parent="1" vertex="1">
          <mxGeometry x="230" y="40" width="120" height="60" as="geometry" />
        </mxCell>
        <mxCell id="-enL-yWNLoUQDlkAJuOZ-2" value="" style="endArrow=none;html=1;rounded=0;" parent="1" edge="1">
          <mxGeometry width="50" height="50" relative="1" as="geometry">
            <mxPoint x="30" y="140" as="sourcePoint" />
            <mxPoint x="1190" y="140" as="targetPoint" />
          </mxGeometry>
        </mxCell>
        <mxCell id="-enL-yWNLoUQDlkAJuOZ-6" value="" style="edgeStyle=orthogonalEdgeStyle;rounded=0;orthogonalLoop=1;jettySize=auto;html=1;" parent="1" source="-enL-yWNLoUQDlkAJuOZ-3" target="-enL-yWNLoUQDlkAJuOZ-5" edge="1">
          <mxGeometry relative="1" as="geometry" />
        </mxCell>
        <mxCell id="-enL-yWNLoUQDlkAJuOZ-3" value="訪客" style="ellipse;whiteSpace=wrap;html=1;" parent="1" vertex="1">
          <mxGeometry x="30" y="160" width="120" height="80" as="geometry" />
        </mxCell>
        <mxCell id="-enL-yWNLoUQDlkAJuOZ-4" value="手機平台" style="rounded=0;whiteSpace=wrap;html=1;" parent="1" vertex="1">
          <mxGeometry x="30" y="40" width="120" height="60" as="geometry" />
        </mxCell>
        <mxCell id="-enL-yWNLoUQDlkAJuOZ-8" value="" style="edgeStyle=orthogonalEdgeStyle;rounded=0;orthogonalLoop=1;jettySize=auto;html=1;" parent="1" source="-enL-yWNLoUQDlkAJuOZ-5" target="-enL-yWNLoUQDlkAJuOZ-7" edge="1">
          <mxGeometry relative="1" as="geometry" />
        </mxCell>
        <mxCell id="-enL-yWNLoUQDlkAJuOZ-5" value="&amp;nbsp;下載" style="shape=process;whiteSpace=wrap;html=1;backgroundOutline=1;" parent="1" vertex="1">
          <mxGeometry x="30" y="280" width="120" height="60" as="geometry" />
        </mxCell>
        <mxCell id="-enL-yWNLoUQDlkAJuOZ-10" style="edgeStyle=orthogonalEdgeStyle;rounded=0;orthogonalLoop=1;jettySize=auto;html=1;exitX=1;exitY=0.5;exitDx=0;exitDy=0;entryX=0;entryY=0.5;entryDx=0;entryDy=0;" parent="1" source="-enL-yWNLoUQDlkAJuOZ-7" target="-enL-yWNLoUQDlkAJuOZ-9" edge="1">
          <mxGeometry relative="1" as="geometry" />
        </mxCell>
        <mxCell id="-enL-yWNLoUQDlkAJuOZ-7" value="點選app" style="rounded=1;whiteSpace=wrap;html=1;" parent="1" vertex="1">
          <mxGeometry x="30" y="390" width="120" height="60" as="geometry" />
        </mxCell>
        <mxCell id="-enL-yWNLoUQDlkAJuOZ-21" style="edgeStyle=orthogonalEdgeStyle;rounded=0;orthogonalLoop=1;jettySize=auto;html=1;exitX=0.5;exitY=1;exitDx=0;exitDy=0;entryX=0;entryY=0.5;entryDx=0;entryDy=0;" parent="1" source="-enL-yWNLoUQDlkAJuOZ-9" target="-enL-yWNLoUQDlkAJuOZ-14" edge="1">
          <mxGeometry relative="1" as="geometry">
            <Array as="points">
              <mxPoint x="290" y="260" />
              <mxPoint x="210" y="260" />
              <mxPoint x="210" y="420" />
            </Array>
          </mxGeometry>
        </mxCell>
        <mxCell id="-enL-yWNLoUQDlkAJuOZ-22" style="edgeStyle=orthogonalEdgeStyle;rounded=0;orthogonalLoop=1;jettySize=auto;html=1;exitX=0.5;exitY=1;exitDx=0;exitDy=0;entryX=0;entryY=0.5;entryDx=0;entryDy=0;" parent="1" source="-enL-yWNLoUQDlkAJuOZ-9" target="-enL-yWNLoUQDlkAJuOZ-15" edge="1">
          <mxGeometry relative="1" as="geometry">
            <Array as="points">
              <mxPoint x="290" y="260" />
              <mxPoint x="210" y="260" />
              <mxPoint x="210" y="520" />
            </Array>
          </mxGeometry>
        </mxCell>
        <mxCell id="-enL-yWNLoUQDlkAJuOZ-23" style="edgeStyle=orthogonalEdgeStyle;rounded=0;orthogonalLoop=1;jettySize=auto;html=1;exitX=0.5;exitY=1;exitDx=0;exitDy=0;entryX=0;entryY=0.5;entryDx=0;entryDy=0;" parent="1" source="-enL-yWNLoUQDlkAJuOZ-9" target="-enL-yWNLoUQDlkAJuOZ-17" edge="1">
          <mxGeometry relative="1" as="geometry">
            <Array as="points">
              <mxPoint x="290" y="260" />
              <mxPoint x="210" y="260" />
              <mxPoint x="210" y="620" />
            </Array>
          </mxGeometry>
        </mxCell>
        <mxCell id="-enL-yWNLoUQDlkAJuOZ-27" style="edgeStyle=orthogonalEdgeStyle;rounded=0;orthogonalLoop=1;jettySize=auto;html=1;exitX=0.5;exitY=1;exitDx=0;exitDy=0;entryX=0;entryY=0.5;entryDx=0;entryDy=0;" parent="1" source="-enL-yWNLoUQDlkAJuOZ-9" target="-enL-yWNLoUQDlkAJuOZ-26" edge="1">
          <mxGeometry relative="1" as="geometry">
            <Array as="points">
              <mxPoint x="290" y="260" />
              <mxPoint x="210" y="260" />
              <mxPoint x="210" y="720" />
            </Array>
          </mxGeometry>
        </mxCell>
        <mxCell id="-enL-yWNLoUQDlkAJuOZ-9" value="進入app 首頁" style="rounded=1;whiteSpace=wrap;html=1;" parent="1" vertex="1">
          <mxGeometry x="230" y="170" width="120" height="60" as="geometry" />
        </mxCell>
        <mxCell id="-enL-yWNLoUQDlkAJuOZ-12" value="&lt;div&gt;小遊戲平台&lt;/div&gt;&lt;div&gt;遊戲頁面&lt;br&gt;&lt;/div&gt;" style="rounded=0;whiteSpace=wrap;html=1;" parent="1" vertex="1">
          <mxGeometry x="450" y="40" width="120" height="60" as="geometry" />
        </mxCell>
        <mxCell id="-enL-yWNLoUQDlkAJuOZ-38" style="edgeStyle=orthogonalEdgeStyle;rounded=0;orthogonalLoop=1;jettySize=auto;html=1;exitX=1;exitY=0.5;exitDx=0;exitDy=0;fillColor=#e1d5e7;strokeColor=#9673a6;entryX=0;entryY=0.5;entryDx=0;entryDy=0;" parent="1" source="-enL-yWNLoUQDlkAJuOZ-14" target="-enL-yWNLoUQDlkAJuOZ-35" edge="1">
          <mxGeometry relative="1" as="geometry">
            <mxPoint x="450" y="200" as="targetPoint" />
            <Array as="points">
              <mxPoint x="380" y="420" />
              <mxPoint x="380" y="200" />
            </Array>
          </mxGeometry>
        </mxCell>
        <mxCell id="-enL-yWNLoUQDlkAJuOZ-42" style="edgeStyle=orthogonalEdgeStyle;rounded=0;orthogonalLoop=1;jettySize=auto;html=1;exitX=1;exitY=0.75;exitDx=0;exitDy=0;entryX=0;entryY=0.5;entryDx=0;entryDy=0;" parent="1" source="-enL-yWNLoUQDlkAJuOZ-14" target="-enL-yWNLoUQDlkAJuOZ-30" edge="1">
          <mxGeometry relative="1" as="geometry">
            <Array as="points">
              <mxPoint x="420" y="435" />
              <mxPoint x="420" y="390" />
            </Array>
          </mxGeometry>
        </mxCell>
        <mxCell id="-enL-yWNLoUQDlkAJuOZ-14" value="app 推薦遊戲" style="rounded=1;whiteSpace=wrap;html=1;" parent="1" vertex="1">
          <mxGeometry x="230" y="390" width="120" height="60" as="geometry" />
        </mxCell>
        <mxCell id="-enL-yWNLoUQDlkAJuOZ-40" style="edgeStyle=orthogonalEdgeStyle;rounded=0;orthogonalLoop=1;jettySize=auto;html=1;exitX=1;exitY=0.5;exitDx=0;exitDy=0;entryX=0;entryY=0.5;entryDx=0;entryDy=0;fillColor=#e1d5e7;strokeColor=#9673a6;" parent="1" source="-enL-yWNLoUQDlkAJuOZ-15" target="-enL-yWNLoUQDlkAJuOZ-35" edge="1">
          <mxGeometry relative="1" as="geometry">
            <mxPoint x="450" y="200" as="targetPoint" />
            <Array as="points">
              <mxPoint x="380" y="520" />
              <mxPoint x="380" y="200" />
            </Array>
          </mxGeometry>
        </mxCell>
        <mxCell id="-enL-yWNLoUQDlkAJuOZ-43" style="edgeStyle=orthogonalEdgeStyle;rounded=0;orthogonalLoop=1;jettySize=auto;html=1;exitX=1;exitY=0.75;exitDx=0;exitDy=0;entryX=0;entryY=0.5;entryDx=0;entryDy=0;" parent="1" source="-enL-yWNLoUQDlkAJuOZ-15" target="-enL-yWNLoUQDlkAJuOZ-31" edge="1">
          <mxGeometry relative="1" as="geometry">
            <Array as="points">
              <mxPoint x="500" y="535" />
              <mxPoint x="500" y="535" />
            </Array>
          </mxGeometry>
        </mxCell>
        <mxCell id="-enL-yWNLoUQDlkAJuOZ-15" value="&lt;div&gt;app &lt;br&gt;&lt;/div&gt;&lt;div&gt;各類遊戲區&lt;/div&gt;" style="rounded=1;whiteSpace=wrap;html=1;" parent="1" vertex="1">
          <mxGeometry x="230" y="490" width="120" height="60" as="geometry" />
        </mxCell>
        <mxCell id="-enL-yWNLoUQDlkAJuOZ-52" style="edgeStyle=orthogonalEdgeStyle;rounded=0;orthogonalLoop=1;jettySize=auto;html=1;exitX=1;exitY=0.5;exitDx=0;exitDy=0;entryX=0.5;entryY=1;entryDx=0;entryDy=0;" parent="1" source="-enL-yWNLoUQDlkAJuOZ-17" target="-enL-yWNLoUQDlkAJuOZ-51" edge="1">
          <mxGeometry relative="1" as="geometry" />
        </mxCell>
        <mxCell id="-enL-yWNLoUQDlkAJuOZ-17" value="&lt;div&gt;app&amp;nbsp;&lt;/div&gt;&lt;div&gt;banner&lt;br&gt;&lt;/div&gt;" style="rounded=1;whiteSpace=wrap;html=1;" parent="1" vertex="1">
          <mxGeometry x="230" y="590" width="120" height="60" as="geometry" />
        </mxCell>
        <mxCell id="-enL-yWNLoUQDlkAJuOZ-66" style="edgeStyle=orthogonalEdgeStyle;rounded=0;orthogonalLoop=1;jettySize=auto;html=1;exitX=1;exitY=0.5;exitDx=0;exitDy=0;entryX=0.5;entryY=1;entryDx=0;entryDy=0;" parent="1" source="-enL-yWNLoUQDlkAJuOZ-26" target="-enL-yWNLoUQDlkAJuOZ-65" edge="1">
          <mxGeometry relative="1" as="geometry" />
        </mxCell>
        <mxCell id="-enL-yWNLoUQDlkAJuOZ-26" value="&lt;div&gt;app &lt;br&gt;&lt;/div&gt;&lt;div&gt;footer&lt;/div&gt;" style="rounded=1;whiteSpace=wrap;html=1;" parent="1" vertex="1">
          <mxGeometry x="230" y="690" width="120" height="60" as="geometry" />
        </mxCell>
        <mxCell id="-enL-yWNLoUQDlkAJuOZ-28" value="&lt;div&gt;小遊戲平台&lt;/div&gt;&lt;div&gt;遊戲分類&lt;br&gt;&lt;/div&gt;" style="rounded=0;whiteSpace=wrap;html=1;" parent="1" vertex="1">
          <mxGeometry x="650" y="40" width="120" height="60" as="geometry" />
        </mxCell>
        <mxCell id="Uj7ilTJtb2IwG0n1c9Ha-1" style="edgeStyle=orthogonalEdgeStyle;rounded=0;orthogonalLoop=1;jettySize=auto;html=1;exitX=1;exitY=0.5;exitDx=0;exitDy=0;entryX=1;entryY=0.25;entryDx=0;entryDy=0;" parent="1" source="-enL-yWNLoUQDlkAJuOZ-30" target="-enL-yWNLoUQDlkAJuOZ-35" edge="1">
          <mxGeometry relative="1" as="geometry">
            <Array as="points">
              <mxPoint x="810" y="390" />
              <mxPoint x="810" y="185" />
            </Array>
          </mxGeometry>
        </mxCell>
        <mxCell id="-enL-yWNLoUQDlkAJuOZ-30" value="&lt;div&gt;app 推薦遊戲&lt;/div&gt;&lt;div&gt;分類頁&lt;br&gt;&lt;/div&gt;" style="rounded=1;whiteSpace=wrap;html=1;" parent="1" vertex="1">
          <mxGeometry x="650" y="360" width="120" height="60" as="geometry" />
        </mxCell>
        <mxCell id="Uj7ilTJtb2IwG0n1c9Ha-2" style="edgeStyle=orthogonalEdgeStyle;rounded=0;orthogonalLoop=1;jettySize=auto;html=1;exitX=1;exitY=0.5;exitDx=0;exitDy=0;entryX=1;entryY=0.25;entryDx=0;entryDy=0;" parent="1" source="-enL-yWNLoUQDlkAJuOZ-31" target="-enL-yWNLoUQDlkAJuOZ-35" edge="1">
          <mxGeometry relative="1" as="geometry" />
        </mxCell>
        <mxCell id="-enL-yWNLoUQDlkAJuOZ-31" value="&lt;div&gt;app 各類遊戲&lt;/div&gt;&lt;div&gt;分類頁&lt;br&gt;&lt;/div&gt;" style="rounded=1;whiteSpace=wrap;html=1;" parent="1" vertex="1">
          <mxGeometry x="650" y="505" width="120" height="60" as="geometry" />
        </mxCell>
        <mxCell id="-enL-yWNLoUQDlkAJuOZ-32" value="&lt;div&gt;小遊戲平台&lt;/div&gt;&lt;div&gt;廣告頁面&lt;br&gt;&lt;/div&gt;" style="rounded=0;whiteSpace=wrap;html=1;" parent="1" vertex="1">
          <mxGeometry x="840" y="40" width="120" height="60" as="geometry" />
        </mxCell>
        <mxCell id="-enL-yWNLoUQDlkAJuOZ-46" value="" style="edgeStyle=orthogonalEdgeStyle;rounded=0;orthogonalLoop=1;jettySize=auto;html=1;" parent="1" source="-enL-yWNLoUQDlkAJuOZ-35" target="-enL-yWNLoUQDlkAJuOZ-45" edge="1">
          <mxGeometry relative="1" as="geometry" />
        </mxCell>
        <mxCell id="-enL-yWNLoUQDlkAJuOZ-49" style="edgeStyle=orthogonalEdgeStyle;rounded=0;orthogonalLoop=1;jettySize=auto;html=1;exitX=0.5;exitY=0;exitDx=0;exitDy=0;fillColor=#f8cecc;strokeColor=#b85450;" parent="1" source="-enL-yWNLoUQDlkAJuOZ-35" target="-enL-yWNLoUQDlkAJuOZ-30" edge="1">
          <mxGeometry relative="1" as="geometry">
            <Array as="points">
              <mxPoint x="510" y="160" />
              <mxPoint x="610" y="160" />
              <mxPoint x="610" y="320" />
              <mxPoint x="710" y="320" />
            </Array>
          </mxGeometry>
        </mxCell>
        <mxCell id="-enL-yWNLoUQDlkAJuOZ-50" style="edgeStyle=orthogonalEdgeStyle;rounded=0;orthogonalLoop=1;jettySize=auto;html=1;exitX=0.5;exitY=0;exitDx=0;exitDy=0;entryX=0.5;entryY=0;entryDx=0;entryDy=0;fillColor=#f8cecc;strokeColor=#b85450;" parent="1" source="-enL-yWNLoUQDlkAJuOZ-35" target="-enL-yWNLoUQDlkAJuOZ-31" edge="1">
          <mxGeometry relative="1" as="geometry">
            <Array as="points">
              <mxPoint x="510" y="160" />
              <mxPoint x="610" y="160" />
              <mxPoint x="610" y="460" />
              <mxPoint x="710" y="460" />
            </Array>
          </mxGeometry>
        </mxCell>
        <mxCell id="-enL-yWNLoUQDlkAJuOZ-35" value="進入遊戲" style="rounded=1;whiteSpace=wrap;html=1;" parent="1" vertex="1">
          <mxGeometry x="450" y="170" width="120" height="60" as="geometry" />
        </mxCell>
        <mxCell id="-enL-yWNLoUQDlkAJuOZ-47" style="edgeStyle=orthogonalEdgeStyle;rounded=0;orthogonalLoop=1;jettySize=auto;html=1;exitX=1;exitY=0.5;exitDx=0;exitDy=0;exitPerimeter=0;entryX=1;entryY=0.5;entryDx=0;entryDy=0;" parent="1" source="-enL-yWNLoUQDlkAJuOZ-45" target="-enL-yWNLoUQDlkAJuOZ-35" edge="1">
          <mxGeometry relative="1" as="geometry" />
        </mxCell>
        <mxCell id="-enL-yWNLoUQDlkAJuOZ-45" value="廣告" style="shape=tape;whiteSpace=wrap;html=1;" parent="1" vertex="1">
          <mxGeometry x="450" y="260" width="120" height="100" as="geometry" />
        </mxCell>
        <mxCell id="-enL-yWNLoUQDlkAJuOZ-54" style="edgeStyle=orthogonalEdgeStyle;rounded=0;orthogonalLoop=1;jettySize=auto;html=1;exitX=0.5;exitY=0;exitDx=0;exitDy=0;entryX=0.417;entryY=0;entryDx=0;entryDy=0;entryPerimeter=0;" parent="1" source="-enL-yWNLoUQDlkAJuOZ-51" target="-enL-yWNLoUQDlkAJuOZ-9" edge="1">
          <mxGeometry relative="1" as="geometry" />
        </mxCell>
        <mxCell id="-enL-yWNLoUQDlkAJuOZ-51" value="廣告頁面" style="rounded=1;whiteSpace=wrap;html=1;" parent="1" vertex="1">
          <mxGeometry x="840" y="170" width="120" height="60" as="geometry" />
        </mxCell>
        <mxCell id="-enL-yWNLoUQDlkAJuOZ-64" value="XFORCE" style="rounded=0;whiteSpace=wrap;html=1;" parent="1" vertex="1">
          <mxGeometry x="1030" y="40" width="120" height="60" as="geometry" />
        </mxCell>
        <mxCell id="-enL-yWNLoUQDlkAJuOZ-65" value="介紹頁面" style="rounded=1;whiteSpace=wrap;html=1;" parent="1" vertex="1">
          <mxGeometry x="1030" y="170" width="120" height="60" as="geometry" />
        </mxCell>
      </root>
    </mxGraphModel>
  </diagram>
  <diagram id="epyIMWLhm1WSF7ThA_lB" name="card sorting">
    <mxGraphModel dx="1422" dy="780" grid="1" gridSize="10" guides="1" tooltips="1" connect="1" arrows="1" fold="1" page="1" pageScale="1" pageWidth="827" pageHeight="1169" math="0" shadow="0">
      <root>
        <mxCell id="EeFRdfWhdO2TgrpeLr-J-0" />
        <mxCell id="EeFRdfWhdO2TgrpeLr-J-1" parent="EeFRdfWhdO2TgrpeLr-J-0" />
        <mxCell id="EeFRdfWhdO2TgrpeLr-J-2" value="首頁" style="rounded=0;whiteSpace=wrap;html=1;" vertex="1" parent="EeFRdfWhdO2TgrpeLr-J-1">
          <mxGeometry x="40" y="40" width="90" height="60" as="geometry" />
        </mxCell>
        <mxCell id="EeFRdfWhdO2TgrpeLr-J-3" value="分類頁" style="rounded=0;whiteSpace=wrap;html=1;" vertex="1" parent="EeFRdfWhdO2TgrpeLr-J-1">
          <mxGeometry x="40" y="130" width="90" height="60" as="geometry" />
        </mxCell>
        <mxCell id="EeFRdfWhdO2TgrpeLr-J-4" value="遊戲介紹頁" style="rounded=0;whiteSpace=wrap;html=1;" vertex="1" parent="EeFRdfWhdO2TgrpeLr-J-1">
          <mxGeometry x="40" y="220" width="90" height="60" as="geometry" />
        </mxCell>
        <mxCell id="EeFRdfWhdO2TgrpeLr-J-5" value="遊戲頁" style="rounded=0;whiteSpace=wrap;html=1;" vertex="1" parent="EeFRdfWhdO2TgrpeLr-J-1">
          <mxGeometry x="40" y="310" width="90" height="60" as="geometry" />
        </mxCell>
        <mxCell id="EeFRdfWhdO2TgrpeLr-J-6" value="Banner" style="rounded=0;whiteSpace=wrap;html=1;" vertex="1" parent="EeFRdfWhdO2TgrpeLr-J-1">
          <mxGeometry x="40" y="410" width="90" height="60" as="geometry" />
        </mxCell>
        <mxCell id="EeFRdfWhdO2TgrpeLr-J-7" value="選單" style="rounded=0;whiteSpace=wrap;html=1;" vertex="1" parent="EeFRdfWhdO2TgrpeLr-J-1">
          <mxGeometry x="40" y="510" width="90" height="60" as="geometry" />
        </mxCell>
        <mxCell id="bRjFE_d5F8oeGXVRDRT4-0" value="熱門遊戲" style="rounded=0;whiteSpace=wrap;html=1;" vertex="1" parent="EeFRdfWhdO2TgrpeLr-J-1">
          <mxGeometry x="40" y="600" width="90" height="60" as="geometry" />
        </mxCell>
        <mxCell id="bRjFE_d5F8oeGXVRDRT4-1" value="推薦遊戲" style="rounded=0;whiteSpace=wrap;html=1;" vertex="1" parent="EeFRdfWhdO2TgrpeLr-J-1">
          <mxGeometry x="40" y="700" width="90" height="60" as="geometry" />
        </mxCell>
        <mxCell id="bRjFE_d5F8oeGXVRDRT4-2" value="各類遊戲" style="rounded=0;whiteSpace=wrap;html=1;" vertex="1" parent="EeFRdfWhdO2TgrpeLr-J-1">
          <mxGeometry x="40" y="800" width="90" height="60" as="geometry" />
        </mxCell>
        <mxCell id="bRjFE_d5F8oeGXVRDRT4-3" value="遊戲icon" style="rounded=0;whiteSpace=wrap;html=1;" vertex="1" parent="EeFRdfWhdO2TgrpeLr-J-1">
          <mxGeometry x="40" y="900" width="90" height="60" as="geometry" />
        </mxCell>
        <mxCell id="bRjFE_d5F8oeGXVRDRT4-4" value="遊戲名稱" style="rounded=0;whiteSpace=wrap;html=1;" vertex="1" parent="EeFRdfWhdO2TgrpeLr-J-1">
          <mxGeometry x="40" y="990" width="90" height="60" as="geometry" />
        </mxCell>
        <mxCell id="bRjFE_d5F8oeGXVRDRT4-5" value="遊玩人數" style="rounded=0;whiteSpace=wrap;html=1;" vertex="1" parent="EeFRdfWhdO2TgrpeLr-J-1">
          <mxGeometry x="40" y="1080" width="90" height="60" as="geometry" />
        </mxCell>
        <mxCell id="bRjFE_d5F8oeGXVRDRT4-6" value="logo" style="rounded=0;whiteSpace=wrap;html=1;" vertex="1" parent="EeFRdfWhdO2TgrpeLr-J-1">
          <mxGeometry x="40" y="1180" width="90" height="60" as="geometry" />
        </mxCell>
      </root>
    </mxGraphModel>
  </diagram>
</mxfile>
